<svg xmlns="http://www.w3.org/2000/svg" viewBox="0 0 144 144"><path d="M1032,612H888V468h144Zm-47.68-32.08-.11-.08c2.73,7.67,8.78,11,16.7,9.59a6.55,6.55,0,0,1,4.83,1.33c3.58,3.1,6.79,6.62,10.19,9.93,2.86,2.79,5.39,3.07,7.41.77,2.36-2.68,1.28-5-1-7.16-3.49-3.4-7-6.78-10.35-10.31-.82-.87-1.66-2.49-1.4-3.46,2.17-7.87-1-13.34-7.38-17.5l.11.13.06-4.46c7.44,1.48,13.38,9.91,12.5,18.06-.33,3,0,5.46,2.08,6.75a72.41,72.41,0,0,1,7.32-1.35c4.15-.34,5.76-1.93,5.75-6.19s-1.6-5.89-5.82-6.05a19.84,19.84,0,0,1-3-.13c-3.44-.69-4.79-3.95-2.83-6.85a25.27,25.27,0,0,1,2.25-2.5c2.6-2.9,2.57-5-.1-7.84-3.29-3.48-5.69-3.53-9.21-.18-.55.52-1,1.33-1.65,1.49-1.47.36-3.22.92-4.46.42-1-.4-1.85-2.23-1.92-3.48q-.54-9-.59-18c-.07-15.88,0-31.75,0-47.63,0-7.29-3.54-10.82-10.83-10.83q-42,0-84,0c-7,0-10.67,3.6-10.68,10.6q-.06,42.19,0,84.39c0,6.82,3.64,10.28,10.37,10.58,20.51.9,41.14-2.07,61.58,1.86,2.38.46,5.31.24,5.72,3,.27,1.8-.85,4.22-2.11,5.74-3.17,3.8-3.41,5.4-.28,8.64,3.49,3.6,5.33,3.61,9.13.06A18.26,18.26,0,0,1,984,598c3-2.34,6.69-.82,7.19,3,.14,1.1,0,2.25.15,3.35.61,3.7,2.9,5.47,6.55,5.17,4-.32,5.38-2,5.67-6a61.08,61.08,0,0,1,1.52-7.3c-1.09-1.7-3.17-2.36-6.17-2-9.31,1.2-18.43-5.83-19.44-14.65Z" transform="translate(-888 -468)" fill="none"/><path d="M979.46,579.68c1,8.82,10.13,15.85,19.44,14.65,3-.38,5.08.28,6.17,2a61.08,61.08,0,0,0-1.52,7.3c-.29,4-1.7,5.64-5.67,6-3.65.3-5.94-1.47-6.55-5.17-.17-1.1,0-2.25-.15-3.35-.5-3.83-4.14-5.35-7.19-3a18.26,18.26,0,0,0-1.36,1.29c-3.8,3.55-5.64,3.54-9.13-.06-3.13-3.24-2.89-4.84.28-8.64,1.26-1.52,2.38-3.94,2.11-5.74-.41-2.79-3.34-2.57-5.72-3-20.44-3.93-41.07-1-61.58-1.86-6.73-.3-10.36-3.76-10.37-10.58q-.06-42.2,0-84.39c0-7,3.64-10.6,10.68-10.6q42-.06,84,0c7.29,0,10.81,3.54,10.83,10.83,0,15.88,0,31.75,0,47.63q0,9,.59,18c.07,1.25.94,3.08,1.92,3.48,1.24.5,3-.06,4.46-.42.63-.16,1.1-1,1.65-1.49,3.52-3.35,5.92-3.3,9.21.18,2.67,2.82,2.7,4.94.1,7.84a25.27,25.27,0,0,0-2.25,2.5c-2,2.9-.61,6.16,2.83,6.85a19.84,19.84,0,0,0,3,.13c4.22.16,5.81,1.81,5.82,6.05s-1.6,5.85-5.75,6.19a72.41,72.41,0,0,0-7.32,1.35c-2.12-1.29-2.41-3.77-2.08-6.75.88-8.15-5.06-16.58-12.5-18.06l.09.07c-.27-4.59-.46-9.17-.86-13.75a3.38,3.38,0,0,0-1.57-2.25c-4.9-2.6-9.83.28-10.06,5.78a20.57,20.57,0,0,1-.09,2.61,4,4,0,0,1-6.29,2.59,26.06,26.06,0,0,1-2.19-2c-3.19-2.78-5.79-2.67-8.8.34s-3.22,5.63-.46,8.79c.58.65,1.28,1.2,1.82,1.88,2.2,2.75.89,6.18-2.58,6.65-1.48.2-3,0-4.48.2-3.11.48-4.4,3-4.14,7.22.19,3.17,2.32,3,4.49,3l11.22-.06ZM985.85,531l.82,1.22c-1.6,1.26-3.12,3.39-4.81,3.54a8.8,8.8,0,0,1-6.18-2.24c-2.77-2.69-2.64-9.48-.38-12.7,2.07-2.94,6.61-3.79,8.77-1,2.58,3.32,5.41,2.44,8.73,2a11,11,0,0,0-7.95-8.9c-6.55-2.11-13.37.22-16.42,5.52-3.59,6.25-2.34,16.25,2.56,20.5,4.23,3.68,12,4.22,16.89,1.19,4.46-2.76,6.29-8.36,4.6-14.12H981.26v4.66Zm-70.68-1.28h11.45v-5.51H915.34v-5.6h12v-5.5H908v28.16h19.28v-5.74H915.17Zm28.75,3.82c3.44-.42,6.35-.43,9.06-1.19,4.36-1.22,6.65-5,6.51-9.79s-2.74-8.76-7.14-9.27c-5.11-.58-10.33-.13-15.49-.13v28.1h7.06Z" transform="translate(-888 -468)" fill="#e3e3e3"/><path d="M1003.26,563c6.41,4.16,9.55,9.63,7.38,17.5-.26,1,.58,2.59,1.4,3.46,3.34,3.53,6.86,6.91,10.35,10.31,2.23,2.16,3.31,4.48,1,7.16-2,2.3-4.55,2-7.41-.77-3.4-3.31-6.61-6.83-10.19-9.93a6.55,6.55,0,0,0-4.83-1.33c-7.92,1.42-14-1.92-16.71-9.6h6l-5.78-7.22-1.18.48,1.11,6.83-4.86-.24.07.08c-1.43-7.28.62-13.48,6.39-18,5.19-4.12,11.16-5.36,17.6-2.94l-.09-.07-.06,4.46c-2.86-1.15-5.72-2-8.59-.42l7.77,11C1003.8,571.72,1004.07,568.79,1003.26,563Zm20.15,35.43c-1.55-1.1-2.5-2.29-3.31-2.2s-1.64,1.38-2.45,2.14c.79.8,1.5,2.14,2.37,2.25S1021.82,599.56,1023.41,598.46Z" transform="translate(-888 -468)" fill="#e3e3e3"/><path d="M1003.52,558.77c-6.44-2.42-12.41-1.18-17.6,2.94-5.77,4.57-7.82,10.77-6.39,18l-11.22.06c-2.17,0-4.3.15-4.49-3-.26-4.21,1-6.74,4.14-7.22,1.47-.22,3,0,4.48-.2,3.47-.47,4.78-3.9,2.58-6.65-.54-.68-1.24-1.23-1.82-1.88-2.76-3.16-2.62-5.72.46-8.79s5.61-3.12,8.8-.34a26.06,26.06,0,0,0,2.19,2,4,4,0,0,0,6.29-2.59,20.57,20.57,0,0,0,.09-2.61c.23-5.5,5.16-8.38,10.06-5.78a3.38,3.38,0,0,1,1.57,2.25C1003.06,549.6,1003.25,554.18,1003.52,558.77Z" transform="translate(-888 -468)" fill="#e3e3e3"/><path d="M985.85,531l-4.59-.29v-4.66h11.22c1.69,5.76-.14,11.36-4.6,14.12-4.89,3-12.66,2.49-16.89-1.19-4.9-4.25-6.15-14.25-2.56-20.5,3.05-5.3,9.87-7.63,16.42-5.52a11,11,0,0,1,7.95,8.9c-3.32.39-6.15,1.27-8.73-2-2.16-2.78-6.7-1.93-8.77,1-2.26,3.22-2.39,10,.38,12.7a8.8,8.8,0,0,0,6.18,2.24c1.69-.15,3.21-2.28,4.81-3.54Z" transform="translate(-888 -468)" fill="none"/><path d="M915.17,529.74v5.81h12.12v5.74H908V513.13h19.33v5.5h-12v5.6h11.28v5.51Z" transform="translate(-888 -468)" fill="none"/><path d="M943.92,533.56v7.72h-7.06v-28.1c5.16,0,10.38-.45,15.49.13,4.4.51,7,4.54,7.14,9.27s-2.15,8.57-6.51,9.79C950.27,533.13,947.36,533.14,943.92,533.56Zm.14-4.93c3-1.26,5.61-1.77,7.3-3.29.84-.76.7-4.25-.21-5-1.76-1.39-4.38-1.7-7.09-2.6Z" transform="translate(-888 -468)" fill="none"/><path d="M1003.26,563c.81,5.76.54,8.69-.71,10.74l-7.77-11c2.87-1.54,5.73-.73,8.59.42Z" transform="translate(-888 -468)" fill="#e3e3e3"/><path d="M984.32,579.92l-1.11-6.83,1.18-.48,5.78,7.22h-6Z" transform="translate(-888 -468)" fill="#e3e3e3"/><path d="M1023.41,598.46c-1.59,1.1-2.57,2.3-3.39,2.19s-1.58-1.45-2.37-2.25c.81-.76,1.57-2,2.45-2.14S1021.86,597.36,1023.41,598.46Z" transform="translate(-888 -468)" fill="#e3e3e3"/><path d="M944.06,528.63V517.77c2.71.9,5.33,1.21,7.09,2.6.91.72,1.05,4.21.21,5C949.67,526.86,947.07,527.37,944.06,528.63Z" transform="translate(-888 -468)" fill="#e3e3e3"/></svg>