<svg xmlns="http://www.w3.org/2000/svg" viewBox="0 0 192 192"><path d="M1056,636H864V444h192Zm-16-96.07a80,80,0,1,0-80.17,80A80.09,80.09,0,0,0,1040,539.93Z" transform="translate(-864 -444)" fill="none"/><path d="M1040,539.93a80,80,0,1,1-79.8-79.9A80.1,80.1,0,0,1,1040,539.93Zm-144,0a64.07,64.07,0,1,0,64.34-64A64,64,0,0,0,895.93,540Z" transform="translate(-864 -444)" fill="#e3e3e3"/><path d="M895.93,540a64.07,64.07,0,1,1,63.78,64.11A64,64,0,0,1,895.93,540Zm56.12-39.77c0,10.8,0,21.1,0,31.4,0,5.33-1.68,11.69.65,15.7,2.43,4.2,8.71,6.22,13.38,9.06,9.18,5.57,18.41,11.06,27.85,16.71l5.93-9.65c-10.94-6.5-21.6-13-32.39-19.18-2.65-1.52-3.69-3.22-3.61-6.29.21-8.49.07-17,.07-25.48V500.19Z" transform="translate(-864 -444)" fill="none"/><path d="M952.05,500.19h11.89v12.27c0,8.49.14,17-.07,25.48-.08,3.07,1,4.77,3.61,6.29,10.79,6.22,21.45,12.68,32.39,19.18l-5.93,9.65c-9.44-5.65-18.67-11.14-27.85-16.71-4.67-2.84-11-4.86-13.38-9.06-2.33-4-.64-10.37-.65-15.7C952,521.29,952.05,511,952.05,500.19Z" transform="translate(-864 -444)" fill="#e3e3e3"/></svg>