<svg xmlns="http://www.w3.org/2000/svg" viewBox="0 0 192 192"><path d="M864,636V444h192V636Zm35.61-96c2.79,6.8-1.41,10.33-6.41,13.65-2.9,1.92-5.47,4.35-8.3,6.41s-3.37,4.23-1.58,7.27Q890.8,580,898.07,592.8c1.74,3.07,3.95,3.57,7.09,2.21,5-2.18,10.14-4.24,15.29-6.11a6.45,6.45,0,0,1,4.57-.11c12.36,6.31,12.32,6.37,14,20.46.23,2,.7,4,.86,5.93.29,3.54,2.21,4.88,5.63,4.85,7.67-.09,15.33,0,23,0,11.31-.06,11.18,1.7,12.44-11.25.81-8.28,2-15.78,11.52-18.37.45-.12.81-.71,1.26-.77,2.1-.26,4.42-1.08,6.28-.48a144,144,0,0,1,14.36,5.72c3.49,1.55,5.88,1,7.84-2.49q6.9-12.45,14.23-24.65c2.11-3.49,1.32-5.75-1.77-8q-6.44-4.73-12.54-9.91a6.38,6.38,0,0,1-2.27-4c-.59-13.56-.53-13.56,10.35-22a37.52,37.52,0,0,1,3.55-2.76c4.29-2.56,5-5.53,2.14-9.89-3.89-6-7.28-12.32-10.82-18.54-6.33-11.12-5.36-10-15.42-5.25-8.5,4-16,5.55-23.4-1.38-1.52-1.42-3.23-3.23-3.64-5.12-1.17-5.36-1.77-10.84-2.47-16.29-.42-3.26-2.16-4.59-5.37-4.57q-14.75.09-29.5,0c-3.55,0-5,1.65-5.44,5q-1,8.19-2.43,16.3a6.39,6.39,0,0,1-2.26,3.93c-11.45,7.27-11.48,7.22-24.17,2.09-2-.81-4.07-1.5-6-2.42-2.93-1.38-5.11-.79-6.73,2-5,8.66-10,17.32-15,25.94-1.68,2.86-1,5,1.49,6.9,3.06,2.31,5.88,5,9.1,7C898.71,530,902,533.57,899.61,540Z" transform="translate(-864 -444)" fill="none"/><path d="M899.61,540c2.39-6.39-.9-10-5.81-13.14-3.22-2-6-4.71-9.1-7-2.51-1.91-3.17-4-1.49-6.9,5-8.62,10-17.28,15-25.94,1.62-2.83,3.8-3.42,6.73-2,1.95.92,4,1.61,6,2.42,12.69,5.13,12.72,5.18,24.17-2.09a6.39,6.39,0,0,0,2.26-3.93q1.49-8.1,2.43-16.3c.4-3.4,1.89-5.08,5.44-5q14.76.12,29.5,0c3.21,0,5,1.31,5.37,4.57.7,5.45,1.3,10.93,2.47,16.29.41,1.89,2.12,3.7,3.64,5.12,7.38,6.93,14.9,5.42,23.4,1.38,10.06-4.79,9.09-5.87,15.42,5.25,3.54,6.22,6.93,12.55,10.82,18.54,2.82,4.36,2.15,7.33-2.14,9.89a37.52,37.52,0,0,0-3.55,2.76c-10.88,8.47-10.94,8.47-10.35,22a6.38,6.38,0,0,0,2.27,4q6.09,5.18,12.54,9.91c3.09,2.26,3.88,4.52,1.77,8q-7.35,12.18-14.23,24.65c-2,3.54-4.35,4-7.84,2.49a144,144,0,0,0-14.36-5.72c-1.86-.6-4.18.22-6.28.48-.45.06-.81.65-1.26.77-9.53,2.59-10.71,10.09-11.52,18.37-1.26,13-1.13,11.19-12.44,11.25-7.67,0-15.33,0-23,0-3.42,0-5.34-1.31-5.63-4.85-.16-2-.63-3.94-.86-5.93-1.66-14.09-1.62-14.15-14-20.46a6.45,6.45,0,0,0-4.57.11c-5.15,1.87-10.25,3.93-15.29,6.11-3.14,1.36-5.35.86-7.09-2.21Q890.8,580,883.32,567.29c-1.79-3-1.17-5.26,1.58-7.27s5.4-4.49,8.3-6.41C898.2,550.29,902.4,546.76,899.61,540Zm32.41.09a28,28,0,1,0,27.91-28A28,28,0,0,0,932,540.05Z" transform="translate(-864 -444)" fill="#e3e3e3"/><path d="M932,540.05a28,28,0,1,1,28,27.93A28,28,0,0,1,932,540.05Z" transform="translate(-864 -444)" fill="none"/></svg>