<svg xmlns="http://www.w3.org/2000/svg" viewBox="0 0 192 192"><path d="M1056,636H864V444h192ZM887.73,539.8c1.63-43.22,34.51-70,68.66-71.8,35.9-1.9,74.12,25,76.12,72h15.7c-1.53-33.33-15.27-59.26-43.7-75.7-31.51-18.22-63.63-17.08-93.94,3.08-25.41,16.91-37.6,41.69-38.71,72.42Zm49.08,83.92,24-24.39L983,622l12.4-10.32c-4.56-4.42-8.79-8.42-12.92-12.53-4.83-4.82-11.42-9-13.84-14.82s-.41-13.44-.76-20.26c-.2-3.85,1-6.12,4.24-8.47,9.33-6.65,10.44-20,2.92-28.71a20,20,0,0,0-29-1.3c-8.22,7.93-8.56,21.85.45,28.76,4.93,3.77,6,7.62,5.46,12.94a17.75,17.75,0,0,0,0,4.49c1.52,9.19-1.7,16.07-8.93,22-6.62,5.42-12.31,12-18.14,17.76C929,615.68,932.42,619.23,936.81,623.72Zm79-83.94c.54-31.2-26.29-56.91-58-55.68-34.45,1.33-54.75,31.28-53.45,55.63h15.18c4-24.47,17.88-38.83,38.35-39.68a39.41,39.41,0,0,1,26.17,8.07c10.47,7.91,15.29,18.84,16.17,31.66Z" transform="translate(-864 -444)" fill="none"/><path d="M887.73,539.8H871.86c1.11-30.73,13.3-55.51,38.71-72.42,30.31-20.16,62.43-21.3,93.94-3.08,28.43,16.44,42.17,42.37,43.7,75.7h-15.7c-2-47-40.22-73.9-76.12-72C922.24,469.82,889.36,496.58,887.73,539.8Z" transform="translate(-864 -444)" fill="#e3e3e3"/><path d="M936.81,623.72c-4.39-4.49-7.85-8-11.85-12.15,5.83-5.79,11.52-12.34,18.14-17.76,7.23-5.94,10.45-12.82,8.93-22a17.75,17.75,0,0,1,0-4.49c.51-5.32-.53-9.17-5.46-12.94-9-6.91-8.67-20.83-.45-28.76a20,20,0,0,1,29,1.3c7.52,8.72,6.41,22.06-2.92,28.71-3.29,2.35-4.44,4.62-4.24,8.47.35,6.82-1.65,14.41.76,20.26s9,10,13.84,14.82c4.13,4.11,8.36,8.11,12.92,12.53L983,622l-22.21-22.69Z" transform="translate(-864 -444)" fill="#e3e3e3"/><path d="M1015.82,539.78h-15.57c-.88-12.82-5.7-23.75-16.17-31.66a39.41,39.41,0,0,0-26.17-8.07c-20.47.85-34.39,15.21-38.35,39.68H904.38c-1.3-24.35,19-54.3,53.45-55.63C989.53,482.87,1016.36,508.58,1015.82,539.78Z" transform="translate(-864 -444)" fill="#e3e3e3"/></svg>