<svg xmlns="http://www.w3.org/2000/svg" viewBox="0 0 96.75 96.75"><path d="M912,492h96.75v96.75H912Zm47.5,82.68c10.24,0,20.48,0,30.72,0,5.5,0,7.63-2.19,7.74-7.74,0-1,0-2,0-3-.06-6.21-2.11-8.25-8.39-8.25H930.76c-7.5,0-9.15,1.68-9.15,9.27,0,.75,0,1.5,0,2.25.08,5.3,2.2,7.45,7.55,7.47C939.27,574.71,949.39,574.68,959.5,574.68Zm1.71-33.45-1.41-1.47c-.13-.48-.24-1-.41-1.43-4.11-11.36-8.17-22.73-12.43-34-.42-1.12-2.2-2.6-3.12-2.45a5.07,5.07,0,0,0-3.27,2.83c-4.11,10.83-8,21.74-12,32.61-.8,2.17-1.27,4.37,1.34,5.38,2.9,1.12,3.87-1.12,4.71-3.37,2.24-6,2.27-6,8.83-6h1.12c6.2,0,6.19,0,8.33,5.63.35.92.56,2.1,1.25,2.65a5,5,0,0,0,3.25,1.13C958.72,542.62,960,541.77,961.21,541.23Zm17.63-10.84c-3.32-9.09-6.22-17-9.09-25-.8-2.21-1.68-4.59-4.62-3.61s-2.26,3.34-1.43,5.61c3.85,10.53,7.58,21.1,11.56,31.58.58,1.52,2.27,2.6,3.45,3.89,1.26-1.33,3.1-2.43,3.71-4,4-10.36,7.66-20.81,11.43-31.24.34-.93.9-2,.71-2.84-.23-1.07-1-2.61-1.79-2.84a4.76,4.76,0,0,0-3.59.92c-.77.58-1,1.93-1.4,3C984.92,513.67,982.08,521.48,978.84,530.39Z" transform="translate(-912 -492)" fill="none"/><path d="M959.5,574.68c-10.11,0-20.23,0-30.34,0-5.35,0-7.47-2.17-7.55-7.47,0-.75,0-1.5,0-2.25,0-7.59,1.65-9.27,9.15-9.27h58.81c6.28,0,8.33,2,8.39,8.25,0,1,0,2,0,3-.11,5.55-2.24,7.72-7.74,7.74C980,574.71,969.74,574.68,959.5,574.68Zm.27-6.27c3.85,0,7.71,0,11.57,0,2.25,0,4.16-.67,4.22-3.15s-1.83-3.31-4.07-3.31H948c-2.25,0-4.1.81-4,3.35s2,3.14,4.24,3.12C952.05,568.38,955.91,568.41,959.77,568.41Zm-24.31-3.2c-1.93-1.44-3.14-3.05-4.25-3S929,564,927.93,565c1.08,1.13,2,2.89,3.29,3.16C932.16,568.37,933.52,566.64,935.46,565.21Zm57.34.19c-1.93-1.55-3.07-3.17-4.17-3.14s-2.2,1.68-3.3,2.62c1,1.16,1.84,2.94,3.07,3.28C989.31,568.41,990.73,566.78,992.8,565.4Z" transform="translate(-912 -492)" fill="#e3e3e3"/><path d="M961.21,541.23c-1.26.54-2.49,1.39-3.8,1.52a5,5,0,0,1-3.25-1.13c-.69-.55-.9-1.73-1.25-2.65-2.14-5.63-2.13-5.63-8.33-5.63h-1.12c-6.56,0-6.59,0-8.83,6-.84,2.25-1.81,4.49-4.71,3.37-2.61-1-2.14-3.21-1.34-5.38,4-10.87,7.88-21.78,12-32.61a5.07,5.07,0,0,1,3.27-2.83c.92-.15,2.7,1.33,3.12,2.45,4.26,11.3,8.32,22.67,12.43,34,.17.47.28.95.41,1.43Zm-22-14.48h9.22l-4.62-12.66Z" transform="translate(-912 -492)" fill="#e3e3e3"/><path d="M978.84,530.39c3.24-8.91,6.08-16.72,8.94-24.53.38-1.05.63-2.4,1.4-3a4.76,4.76,0,0,1,3.59-.92c.83.23,1.56,1.77,1.79,2.84.19.86-.37,1.91-.71,2.84-3.77,10.43-7.47,20.88-11.43,31.24-.61,1.58-2.45,2.68-3.71,4-1.18-1.29-2.87-2.37-3.45-3.89-4-10.48-7.71-21-11.56-31.58-.83-2.27-1.52-4.62,1.43-5.61s3.82,1.4,4.62,3.61C972.62,513.37,975.52,521.3,978.84,530.39Z" transform="translate(-912 -492)" fill="#e3e3e3"/><path d="M959.77,568.41c-3.86,0-7.72,0-11.58,0-2.25,0-4.15-.6-4.24-3.12s1.76-3.34,4-3.35h23.53c2.24,0,4.13.8,4.07,3.31s-2,3.17-4.22,3.15C967.48,568.39,963.62,568.41,959.77,568.41Z" transform="translate(-912 -492)" fill="none"/><path d="M935.46,565.21c-1.94,1.43-3.3,3.16-4.24,2.95-1.27-.27-2.21-2-3.29-3.16,1.09-1,2.13-2.69,3.28-2.76S933.53,563.77,935.46,565.21Z" transform="translate(-912 -492)" fill="none"/><path d="M992.8,565.4c-2.07,1.38-3.49,3-4.4,2.76-1.23-.34-2.06-2.12-3.07-3.28,1.1-.94,2.18-2.59,3.3-2.62S990.87,563.85,992.8,565.4Z" transform="translate(-912 -492)" fill="none"/><path d="M939.22,526.75l4.6-12.66,4.62,12.66Z" transform="translate(-912 -492)" fill="none"/></svg>